<?xml version="1.0" standalone="no"?>
<!DOCTYPE svg PUBLIC "-//W3C//DTD SVG 20010904//EN"
 "http://www.w3.org/TR/2001/REC-SVG-20010904/DTD/svg10.dtd">
<svg version="1.0" xmlns="http://www.w3.org/2000/svg"
 width="1280.000000pt" height="420.000000pt" viewBox="0 0 1280.000000 420.000000"
 preserveAspectRatio="xMidYMid meet">
<g transform="translate(0.000000,420.000000) scale(0.100000,-0.100000)"
fill="#000000" stroke="none">
<path d="M1520 4188 c-272 -39 -405 -78 -605 -178 -432 -214 -752 -614 -860
-1073 -13 -56 -31 -162 -41 -236 -18 -132 -18 -134 5 -293 44 -309 113 -496
273 -734 89 -134 272 -321 408 -416 321 -226 710 -332 1097 -299 313 27 531
100 757 255 364 248 573 624 605 1090 8 113 0 343 -14 387 -6 18 -28 19 -739
19 l-733 0 -5 -107 c-3 -60 -3 -156 0 -215 l5 -108 525 0 525 0 -7 -59 c-18
-158 -104 -358 -205 -477 -33 -40 -97 -100 -142 -134 -457 -344 -1131 -296
-1540 110 -370 368 -456 940 -211 1414 229 444 728 692 1228 611 203 -33 355
-100 535 -236 l77 -58 148 151 148 151 -54 49 c-80 72 -248 182 -353 232 -163
77 -290 114 -501 145 -147 22 -220 24 -326 9z"/>
<path d="M10220 2550 l0 -1530 223 2 222 3 0 123 c0 67 -1 754 -3 1527 l-2
1405 -220 0 -220 0 0 -1530z"/>
<path d="M4206 3019 c-168 -23 -375 -116 -515 -231 -153 -125 -274 -319 -328
-523 -23 -89 -27 -119 -27 -270 0 -144 3 -184 22 -258 50 -198 143 -359 287
-495 143 -135 303 -220 494 -263 111 -24 338 -26 449 -3 387 79 691 367 794
752 29 111 36 336 13 457 -79 424 -376 728 -800 821 -86 19 -296 26 -389 13z
m304 -401 c159 -38 313 -163 389 -318 56 -114 74 -206 68 -340 -13 -295 -188
-522 -453 -590 -271 -70 -544 58 -668 312 -177 362 -22 795 328 919 112 39
221 45 336 17z"/>
<path d="M6509 3020 c-407 -52 -745 -345 -855 -742 -35 -126 -44 -340 -20
-476 34 -198 122 -373 258 -517 138 -146 279 -232 474 -291 77 -23 112 -27
254 -31 138 -4 181 -2 261 15 390 80 695 373 790 757 26 105 36 306 19 416
-62 426 -377 763 -800 855 -81 18 -293 26 -381 14z m259 -396 c119 -24 214
-75 302 -164 118 -118 177 -253 187 -430 10 -170 -45 -343 -150 -472 -56 -68
-171 -147 -258 -178 -80 -27 -217 -37 -301 -21 -96 19 -215 80 -285 148 -126
122 -190 266 -200 449 -18 326 183 604 482 668 92 19 130 19 223 0z"/>
<path d="M8738 3015 c-314 -60 -597 -283 -734 -579 -184 -399 -103 -872 203
-1182 342 -345 853 -398 1184 -123 32 27 63 49 68 49 18 0 24 -69 17 -182 -19
-303 -135 -481 -364 -560 -57 -20 -86 -23 -197 -22 -109 0 -140 4 -190 22
-123 46 -230 137 -307 262 -24 38 -47 70 -53 70 -27 0 -365 -146 -365 -159 0
-27 72 -149 134 -227 107 -134 246 -238 398 -298 87 -34 159 -52 289 -71 101
-15 113 -14 230 4 417 67 667 271 783 639 61 194 60 181 61 1287 l0 1010 -207
3 -208 2 0 -63 c0 -35 -6 -71 -13 -80 -11 -16 -18 -13 -77 38 -72 61 -192 125
-285 150 -86 23 -272 28 -367 10z m339 -399 c148 -39 280 -151 352 -297 59
-121 75 -192 75 -329 0 -137 -16 -208 -75 -329 -139 -283 -463 -390 -749 -248
-90 44 -204 159 -253 254 -104 200 -103 447 0 646 48 93 165 212 249 255 60
30 141 57 199 65 43 7 145 -2 202 -17z"/>
<path d="M11679 3015 c-186 -35 -360 -126 -490 -254 -129 -129 -216 -282 -267
-469 -24 -89 -26 -113 -26 -292 0 -180 2 -202 27 -295 113 -418 448 -701 883
-745 315 -32 601 71 835 300 91 90 125 133 115 149 -3 5 -78 57 -166 116
l-159 106 -88 -89 c-134 -135 -262 -192 -433 -192 -157 0 -280 45 -381 138
-63 58 -129 150 -129 179 0 14 132 73 690 303 425 176 690 290 690 298 0 8
-18 57 -40 110 -135 323 -352 534 -635 617 -113 34 -307 43 -426 20z m326
-391 c102 -26 202 -97 241 -169 18 -35 18 -37 1 -50 -42 -30 -915 -387 -928
-379 -13 8 -11 70 6 149 43 206 202 381 405 446 70 23 196 24 275 3z"/>
</g>
</svg>
